<?xml version="1.0" encoding="UTF-8"?>
<svg version="1.1" xmlns="http://www.w3.org/2000/svg" width="1200" height="1200">
<path d="M0 0 C3.94174602 1.77190071 7.82256121 3.62485749 11.67724609 5.57861328 C12.72972534 6.10636353 12.72972534 6.10636353 13.8034668 6.64477539 C16.40162668 7.94905221 18.99626589 9.26033286 21.59130859 10.57080078 C27.40755859 13.49955078 33.22380859 16.42830078 39.21630859 19.44580078 C39.21630859 35.94580078 39.21630859 52.44580078 39.21630859 69.44580078 C40.86630859 70.10580078 42.51630859 70.76580078 44.21630859 71.44580078 C46.27624043 72.49476408 48.32216149 73.57148589 50.35693359 74.66845703 C51.50935547 75.28914063 52.66177734 75.90982422 53.84912109 76.54931641 C54.44241211 76.8706958 55.03570313 77.1920752 55.64697266 77.52319336 C57.47294355 78.51189338 59.30146991 79.49573687 61.13037109 80.47900391 C70.0828379 85.31233009 70.0828379 85.31233009 71.21630859 86.44580078 C71.31031529 88.40949231 71.33374241 90.37659277 71.32983398 92.3425293 C71.32975845 93.60376114 71.32968292 94.86499298 71.3296051 96.16444397 C71.32449769 97.55119872 71.31928169 98.93795307 71.31396484 100.32470703 C71.31210061 101.73575287 71.31067673 103.14679935 71.30967712 104.55784607 C71.30585239 108.27820613 71.29602249 111.99852738 71.28497314 115.71887207 C71.27475807 119.51260859 71.2701793 123.30635136 71.26513672 127.10009766 C71.25440017 134.54868309 71.23732429 141.99723651 71.21630859 149.44580078 C72.59268745 149.8888279 72.59268745 149.8888279 73.99687195 150.34080505 C77.69813199 151.6111753 81.0899277 153.29872164 84.54833984 155.10595703 C85.22555588 155.45589218 85.90277191 155.80582733 86.60050964 156.16636658 C88.02094885 156.90142513 89.44031276 157.63856502 90.85864258 158.37768555 C93.03722319 159.51268463 95.21922588 160.64087646 97.40185547 161.76806641 C98.78422073 162.48447016 100.16638936 163.20125349 101.54833984 163.91845703 C102.20244339 164.25700211 102.85654694 164.59554718 103.5304718 164.9443512 C108.09990397 167.32939616 108.09990397 167.32939616 109.21630859 168.44580078 C109.21630859 187.91580078 109.21630859 207.38580078 109.21630859 227.44580078 C48.49630859 227.44580078 -12.22369141 227.44580078 -74.78369141 227.44580078 C-74.78369141 205.66580078 -74.78369141 183.88580078 -74.78369141 161.44580078 C-83.69369141 166.06580078 -92.60369141 170.68580078 -101.78369141 175.44580078 C-101.68185547 178.83216797 -101.58001953 182.21853516 -101.47509766 185.70751953 C-101.427572 189.02742625 -101.40606199 192.34657004 -101.38696289 195.66674805 C-101.36005 197.95498828 -101.30654755 200.24308948 -101.22485352 202.5300293 C-100.53876355 222.54899841 -100.53876355 222.54899841 -105.95483398 228.70019531 C-109.05699922 231.60918007 -112.42029635 234.01603786 -116.00479126 236.2940979 C-118.22103366 237.72894671 -120.14974317 239.38953197 -122.10009766 241.16455078 C-123.18176814 242.09205502 -124.2637704 243.01917254 -125.34619141 243.94580078 C-125.89597656 244.41759766 -126.44576172 244.88939453 -127.01220703 245.37548828 C-130.5781119 248.43077245 -134.17519557 251.43872092 -137.78369141 254.44580078 C-47.36369141 254.44580078 43.05630859 254.44580078 136.21630859 254.44580078 C130.93630859 249.49580078 125.65630859 244.54580078 120.21630859 239.44580078 C119.55630859 238.45580078 118.89630859 237.46580078 118.21630859 236.44580078 C133.26160476 235.37959869 133.26160476 235.37959869 137.62255859 237.75830078 C139.32736453 239.55960516 140.75734278 241.44220741 142.21630859 243.44580078 C143.35335932 244.49952155 144.52270465 245.51909836 145.71630859 246.50830078 C149.9274768 250.14521878 154.01332954 253.91110766 158.09130859 257.69580078 C158.75839844 258.31076416 159.42548828 258.92572754 160.11279297 259.55932617 C160.7425 260.14576904 161.37220703 260.73221191 162.02099609 261.33642578 C162.87153564 262.12581543 162.87153564 262.12581543 163.73925781 262.93115234 C165.21630859 264.44580078 165.21630859 264.44580078 167.21630859 267.44580078 C166.6374547 267.44373983 166.05860081 267.44167887 165.46220589 267.43955547 C131.14963956 267.31878568 96.83748153 267.25533866 62.5247069 267.26626443 C58.40416662 267.26752693 54.28362638 267.26831081 50.16308594 267.26879883 C49.34276536 267.26890403 48.52244478 267.26900923 47.677266 267.26911762 C34.39702643 267.26967948 21.11716724 267.23147429 7.83704376 267.17892543 C-5.79105983 267.12586318 -19.41873888 267.11450039 -33.04692078 267.14179438 C-41.4556624 267.15732234 -49.86304853 267.14038033 -58.27160591 267.08181509 C-64.03882842 267.04476346 -69.8051426 267.04824153 -75.57237297 267.08345542 C-78.90033318 267.10258237 -82.22373535 267.09796275 -85.55180931 267.05716515 C-99.10619182 266.06109061 -99.10619182 266.06109061 -111.07400513 270.87573814 C-113.1402795 273.68080477 -114.4735443 276.23443997 -115.78369141 279.44580078 C-117.11262512 281.19627094 -117.11262512 281.19627094 -118.39306641 282.53173828 C-122.74505263 287.16777852 -122.74505263 287.16777852 -126.83056641 292.03564453 C-129.7610205 295.65182488 -133.23613542 298.45164023 -136.78369141 301.44580078 C-137.66154297 302.21150391 -138.53939453 302.97720703 -139.44384766 303.76611328 C-151.2728612 313.92346273 -166.94223176 327.06074831 -182.78369141 329.44580078 C-178.632105 352.2871904 -178.632105 352.2871904 -165.34619141 370.50830078 C-159.48754542 374.11558936 -153.76250733 373.71357797 -147.27587891 372.23486328 C-140.34391138 370.0401024 -136.19157838 366.02048137 -131.78369141 360.44580078 C-131.12369141 360.44580078 -130.46369141 360.44580078 -129.78369141 360.44580078 C-130.63791004 366.38416405 -133.3614206 369.5343785 -137.78369141 373.44580078 C-145.99551562 379.19164819 -153.87367037 380.87013998 -163.78369141 379.44580078 C-166.80580008 378.50643262 -169.20057542 377.25651444 -171.78369141 375.44580078 C-172.62931641 374.90955078 -173.47494141 374.37330078 -174.34619141 373.82080078 C-186.11463392 362.3541132 -190.54249595 346.38536346 -191.78369141 330.44580078 C-192.26837891 331.46158203 -192.75306641 332.47736328 -193.25244141 333.52392578 C-202.47500704 352.58017692 -212.61952105 368.08947967 -233.40478516 375.66845703 C-246.75205319 380.02987959 -261.352907 380.12999563 -274.31494141 374.30908203 C-276.55867669 373.12364189 -278.66727515 371.8440718 -280.78369141 370.44580078 C-281.83556641 369.76517578 -282.88744141 369.08455078 -283.97119141 368.38330078 C-289.34805076 363.51852327 -292.33886803 356.72468825 -293.29931641 349.64501953 C-293.50381064 342.37817082 -293.27468902 335.4337976 -288.78369141 329.44580078 C-284.91309057 325.63865241 -282.3206347 323.44580078 -276.78369141 323.44580078 C-278.19184149 326.61413848 -279.90581327 328.81193783 -282.28369141 331.32080078 C-286.94197429 336.57952761 -288.2357791 341.19889702 -288.02587891 348.14892578 C-287.33052239 354.74359728 -284.72100663 359.4061637 -279.88134766 363.90673828 C-271.50799698 370.05031401 -260.87513895 371.43089101 -250.78369141 370.44580078 C-240.26004455 368.04232114 -231.59118237 363.65080467 -222.78369141 357.44580078 C-222.05794922 356.93662109 -221.33220703 356.42744141 -220.58447266 355.90283203 C-216.11117007 352.3731876 -212.70269193 348.02530164 -209.28369141 343.50830078 C-208.85685059 342.95456787 -208.43000977 342.40083496 -207.99023438 341.83032227 C-198.68182696 329.03868992 -192.8449859 313.25579813 -186.28369141 298.94580078 C-185.45320336 297.13970031 -184.62247545 295.3337101 -183.79150391 293.52783203 C-181.7861439 289.16841592 -179.78399532 284.80753903 -177.78369141 280.44580078 C-181.86950741 280.84003025 -185.95154002 281.26540004 -190.03369141 281.69580078 C-191.17322266 281.80537109 -192.31275391 281.91494141 -193.48681641 282.02783203 C-205.37525458 283.31124297 -218.62127857 285.94488537 -226.60009766 295.65673828 C-231.45520713 302.69957178 -233.90962695 308.85465003 -232.43603516 317.48095703 C-231.95924214 319.61079036 -231.95924214 319.61079036 -230.78369141 322.44580078 C-226.69415927 323.80897816 -223.05577689 324.06653115 -218.78369141 323.44580078 C-213.61599559 320.47916059 -211.86354996 317.40442976 -210.24072266 311.73876953 C-209.60367204 308.54262669 -209.57633516 305.694382 -209.78369141 302.44580078 C-208.79369141 302.44580078 -207.80369141 302.44580078 -206.78369141 302.44580078 C-205.0914174 304.13807479 -205.49159406 306.190215 -205.40869141 308.50830078 C-205.46233813 314.40944013 -206.96248388 318.00522171 -210.78369141 322.44580078 C-214.64524405 326.20833925 -218.44166189 328.3358254 -223.92041016 328.51611328 C-229.69241165 328.18292474 -233.6295237 326.475795 -237.78369141 322.44580078 C-241.68401304 317.11536122 -242.40649285 311.97368254 -241.78369141 305.44580078 C-240.23423066 297.80354525 -236.85255154 292.41535484 -230.55712891 287.82080078 C-214.4699104 277.6066938 -195.35837439 276.23520919 -176.70556641 275.94970703 C-175.74134766 275.78341797 -174.77712891 275.61712891 -173.78369141 275.44580078 C-172.38683863 273.64688806 -172.38683863 273.64688806 -171.78369141 271.44580078 C-171.12369141 270.45580078 -170.46369141 269.46580078 -169.78369141 268.44580078 C-169.78369141 267.45580078 -169.78369141 266.46580078 -169.78369141 265.44580078 C-168.06024287 263.61106499 -166.35639474 261.97418628 -164.47119141 260.32080078 C-163.92503174 259.83144043 -163.37887207 259.34208008 -162.81616211 258.83789062 C-158.56566235 255.05871273 -154.1849345 251.45165853 -149.75634766 247.88330078 C-146.25050246 245.00859986 -142.82708214 242.04847337 -139.40869141 239.07080078 C-134.47214503 234.77395511 -129.52368352 230.49305085 -124.53369141 226.25830078 C-123.99695801 225.80084473 -123.46022461 225.34338867 -122.90722656 224.87207031 C-120.59426721 222.91414761 -118.30961543 221.12975013 -115.78369141 219.44580078 C-115.30745473 217.1900018 -115.30745473 217.1900018 -115.35131836 214.53710938 C-115.32162712 213.00574844 -115.32162712 213.00574844 -115.29133606 211.44345093 C-115.28494614 210.33821075 -115.27855621 209.23297058 -115.27197266 208.09423828 C-115.25402145 206.96506989 -115.23607025 205.83590149 -115.21757507 204.67251587 C-115.16326253 201.05531585 -115.12950875 197.43824932 -115.09619141 193.82080078 C-115.06303689 191.37286545 -115.028549 188.92494778 -114.99267578 186.47705078 C-114.90752415 180.46675383 -114.83926332 174.45644003 -114.78369141 168.44580078 C-114.02338623 168.05312012 -113.26308105 167.66043945 -112.47973633 167.25585938 C-109.60341034 165.76954287 -106.72766976 164.28210094 -103.85229492 162.79394531 C-102.61814592 162.15548744 -101.38377817 161.51745218 -100.14916992 160.87988281 C-93.00240085 157.18879021 -85.89423305 153.44985418 -78.88647461 149.49902344 C-76.78369141 148.44580078 -76.78369141 148.44580078 -74.78369141 148.44580078 C-74.78369141 134.25580078 -74.78369141 120.06580078 -74.78369141 105.44580078 C-63.89369141 99.83580078 -53.00369141 94.22580078 -41.78369141 88.44580078 C-41.45369141 65.67580078 -41.12369141 42.90580078 -40.78369141 19.44580078 C-24.59619141 11.13330078 -24.59619141 11.13330078 -19.51342773 8.52661133 C-18.17245703 7.83704825 -16.83155103 7.14735932 -15.49072266 6.45751953 C-14.80377319 6.10580688 -14.11682373 5.75409424 -13.40905762 5.39172363 C-12.73967163 5.0469397 -12.07028564 4.70215576 -11.38061523 4.34692383 C-10.75611481 4.02839447 -10.13161438 3.70986511 -9.4881897 3.38168335 C-7.57758449 2.37749093 -7.57758449 2.37749093 -5.17700195 0.57006836 C-2.78369141 -0.55419922 -2.78369141 -0.55419922 0 0 Z M-15.90869141 19.07080078 C-17.1487486 19.76343074 -18.3909295 20.45227282 -19.63525391 21.13720703 C-25.0312405 23.85681603 -25.0312405 23.85681603 -29.78369141 27.44580078 C-29.8772833 29.16445487 -29.90113752 30.88695822 -29.8972168 32.6081543 C-29.89714127 33.70922012 -29.89706573 34.81028595 -29.89698792 35.94471741 C-29.89182663 37.14261398 -29.88666534 38.34051056 -29.88134766 39.57470703 C-29.87993271 40.79407455 -29.87851776 42.01344208 -29.87705994 43.26976013 C-29.87144108 47.18263148 -29.85888537 51.09544659 -29.84619141 55.00830078 C-29.84117884 57.65348225 -29.83661551 60.29866461 -29.83251953 62.94384766 C-29.82146552 69.44451804 -29.80470904 75.94515539 -29.78369141 82.44580078 C-21.67892784 78.46914244 -13.64378683 74.41807097 -5.75634766 70.02392578 C-3.78121717 68.94202463 -1.80423231 67.86360368 0.17358398 66.78662109 C1.51247507 66.04908375 2.84507474 65.30002687 4.17163086 64.54052734 C15.36051082 58.15927394 15.36051082 58.15927394 20.08789062 58.88916016 C22.3273858 59.8999968 24.20211481 61.05346489 26.21630859 62.44580078 C26.87630859 62.44580078 27.53630859 62.44580078 28.21630859 62.44580078 C28.21630859 50.89580078 28.21630859 39.34580078 28.21630859 27.44580078 C23.85412109 25.12548828 23.85412109 25.12548828 19.40380859 22.75830078 C18.51201904 22.28175049 17.62022949 21.8052002 16.70141602 21.31420898 C15.09435586 20.46412898 13.47583725 19.63556426 11.85009766 18.82177734 C9.21630859 17.44580078 9.21630859 17.44580078 6.62158203 15.76513672 C-2.16709204 10.59134145 -7.92923096 14.34024336 -15.90869141 19.07080078 Z M13.80639648 70.87524414 C12.86014404 71.42317627 11.9138916 71.9711084 10.93896484 72.53564453 C9.85728027 73.12958008 8.7755957 73.72351563 7.66113281 74.33544922 C5.98688232 75.34913574 5.98688232 75.34913574 4.27880859 76.38330078 C3.10131697 77.06294219 1.9217612 77.73901918 0.74023438 78.41162109 C-1.04954048 79.43281753 -2.83557569 80.45816899 -4.61126709 81.50369263 C-8.30368824 83.667386 -12.02401121 85.52051143 -15.95166016 87.21533203 C-24.84128557 90.70696182 -24.84128557 90.70696182 -30.71044922 97.671875 C-31.83740876 103.01272939 -31.51686476 108.0711671 -30.78369141 113.44580078 C-35.73369141 115.92080078 -35.73369141 115.92080078 -40.78369141 118.44580078 C-40.78369141 112.83580078 -40.78369141 107.22580078 -40.78369141 101.44580078 C-41.86908203 101.98849609 -42.95447266 102.53119141 -44.07275391 103.09033203 C-50.30973307 106.20882161 -56.54671224 109.3273112 -62.78369141 112.44580078 C-62.78369141 122.01580078 -62.78369141 131.58580078 -62.78369141 141.44580078 C-53.22651286 136.99057469 -43.72718134 132.50626607 -34.40869141 127.57080078 C-33.64250488 127.16579346 -32.87631836 126.76078613 -32.08691406 126.34350586 C-27.73076754 124.0321455 -23.39249909 121.68978376 -19.06103516 119.33251953 C-17.15611223 118.3077335 -15.25116484 117.28299293 -13.34619141 116.25830078 C-12.45174316 115.76410645 -11.55729492 115.26991211 -10.63574219 114.76074219 C-9.79897949 114.31263184 -8.9622168 113.86452148 -8.10009766 113.40283203 C-7.36218994 113.00040283 -6.62428223 112.59797363 -5.86401367 112.18334961 C-2.59752972 111.02526394 -0.68153119 112.04400228 2.37939453 113.41381836 C3.14541992 113.80206787 3.91144531 114.19031738 4.70068359 114.59033203 C5.98072266 115.23518555 5.98072266 115.23518555 7.28662109 115.89306641 C8.17091797 116.34359375 9.05521484 116.79412109 9.96630859 117.25830078 C10.83513672 117.69722656 11.70396484 118.13615234 12.59912109 118.58837891 C14.24557132 119.42025654 15.89118794 120.25378787 17.53564453 121.08959961 C21.08952913 122.88758039 24.65396884 124.6646309 28.21630859 126.44580078 C28.21630859 109.94580078 28.21630859 93.44580078 28.21630859 76.44580078 C18.78540353 69.91056836 18.78540353 69.91056836 13.80639648 70.87524414 Z M39.21630859 82.44580078 C39.21630859 98.94580078 39.21630859 115.44580078 39.21630859 132.44580078 C49.27018628 139.2512984 49.27018628 139.2512984 60.21630859 142.44580078 C60.21630859 126.27580078 60.21630859 110.10580078 60.21630859 93.44580078 C50.20539066 86.04169649 50.20539066 86.04169649 39.21630859 82.44580078 Z M-10.09228516 126.59423828 C-10.72657944 126.92253128 -11.36087372 127.25082428 -12.01438904 127.58906555 C-14.08542232 128.66232001 -16.1533437 129.74142319 -18.22119141 130.82080078 C-19.63982554 131.55782157 -21.05860851 132.29455591 -22.47753906 133.03100586 C-26.58262824 135.16346582 -30.68355455 137.3038385 -34.78369141 139.44580078 C-35.83282715 139.99316895 -36.88196289 140.54053711 -37.96289062 141.10449219 C-40.52957546 142.44474707 -43.09482436 143.78766455 -45.65869141 145.13330078 C-46.36823975 145.50567871 -47.07778809 145.87805664 -47.80883789 146.26171875 C-52.84446519 148.91855279 -57.80348543 151.67901969 -62.78369141 154.44580078 C-62.78369141 174.57580078 -62.78369141 194.70580078 -62.78369141 215.44580078 C-9.98369141 215.44580078 42.81630859 215.44580078 97.21630859 215.44580078 C97.21630859 202.24580078 97.21630859 189.04580078 97.21630859 175.44580078 C93.66880859 173.48642578 90.12130859 171.52705078 86.46630859 169.50830078 C85.35416992 168.89092041 84.24203125 168.27354004 83.09619141 167.63745117 C82.21286133 167.15268311 81.32953125 166.66791504 80.41943359 166.16845703 C79.51870117 165.67095947 78.61796875 165.17346191 77.68994141 164.66088867 C75.04513222 163.25422754 75.04513222 163.25422754 71.21630859 162.44580078 C71.21630859 176.63580078 71.21630859 190.82580078 71.21630859 205.44580078 C57.02630859 205.44580078 42.83630859 205.44580078 28.21630859 205.44580078 C28.21630859 183.66580078 28.21630859 161.88580078 28.21630859 139.44580078 C9.58089016 126.0405455 9.58089016 126.0405455 -10.09228516 126.59423828 Z M39.21630859 145.44580078 C39.21630859 161.61580078 39.21630859 177.78580078 39.21630859 194.44580078 C46.14630859 194.44580078 53.07630859 194.44580078 60.21630859 194.44580078 C60.44661911 189.13842296 60.64522022 183.84844514 60.765625 178.54003906 C60.81579839 176.73735773 60.88396091 174.93508114 60.97070312 173.13378906 C61.86962185 163.04098524 61.86962185 163.04098524 58.33251953 154.07177734 C55.46328581 152.18805873 55.46328581 152.18805873 50.21630859 150.44580078 C46.58630859 148.79580078 42.95630859 147.14580078 39.21630859 145.44580078 Z M-158.78369141 267.44580078 C-159.11369141 269.75580078 -159.44369141 272.06580078 -159.78369141 274.44580078 C-161.70947266 275.96923828 -161.70947266 275.96923828 -164.09619141 276.82080078 C-164.87607422 277.11728516 -165.65595703 277.41376953 -166.45947266 277.71923828 C-168.78369141 278.44580078 -168.78369141 278.44580078 -170.88134766 278.65283203 C-173.44628558 279.72199507 -174.03570762 281.33243441 -175.11767578 283.80249023 C-175.37871094 284.44790771 -175.63974609 285.0933252 -175.90869141 285.75830078 C-176.19292969 286.43530029 -176.47716797 287.1122998 -176.77001953 287.80981445 C-179.80816645 295.21409829 -182.54662852 302.73865023 -185.28369141 310.25830078 C-185.51509827 310.88693024 -185.74650513 311.51555969 -185.98492432 312.16323853 C-186.64660672 313.9686324 -187.29356283 315.77940261 -187.93994141 317.59033203 C-188.31957031 318.64583252 -188.69919922 319.70133301 -189.09033203 320.78881836 C-190.06149625 323.52159433 -190.06149625 323.52159433 -188.78369141 326.44580078 C-169.16512581 319.4292785 -151.86135344 307.68890588 -136.78369141 293.44580078 C-135.47493121 292.33720391 -134.16252782 291.23289104 -132.84619141 290.13330078 C-125.8734193 284.06940325 -119.27445238 276.86089387 -113.78369141 269.44580078 C-113.78369141 268.78580078 -113.78369141 268.12580078 -113.78369141 267.44580078 C-128.63369141 267.44580078 -143.48369141 267.44580078 -158.78369141 267.44580078 Z M-164.78369141 270.44580078 C-166.42045397 272.40582888 -166.42045397 272.40582888 -167.78369141 274.44580078 C-166.13369141 273.78580078 -164.48369141 273.12580078 -162.78369141 272.44580078 C-162.78369141 271.78580078 -162.78369141 271.12580078 -162.78369141 270.44580078 C-163.44369141 270.44580078 -164.10369141 270.44580078 -164.78369141 270.44580078 Z " fill="#129B53" transform="translate(601.78369140625,411.55419921875)"/>
<path d="M0 0 C-0.33 1.32 -0.66 2.64 -1 4 C-0.09121094 4.03867187 -0.09121094 4.03867187 0.8359375 4.078125 C10.74170551 4.7486693 19.10437446 7.61936104 26 15 C27.74030393 18.48060786 27.44507315 22.19430205 27 26 C22.82192872 34.70431516 14.88589775 39.59927328 6.1484375 42.93359375 C-2.32222612 45.80268949 -10.02725473 47.53598257 -19 47 C-13.69247583 70.34211753 -13.69247583 70.34211753 1 88 C3.82631118 88.8360067 3.82631118 88.8360067 7 88 C13.35062683 83.71859498 16.94830592 78.35842913 20.4375 71.6875 C25.6376959 62.258005 30.69320791 53.42689621 41 49 C44.68905719 48.61837339 47.06082653 48.56653532 50.4375 50.125 C52 52 52 52 52.5625 54.6875 C51.6629954 59.98458264 49.33291775 64.03223459 45.203125 67.515625 C40.97896886 70.32046468 36.67347708 71.93530794 31.78515625 73.2265625 C31.19605469 73.48179687 30.60695313 73.73703125 30 74 C28.8328432 77.50147041 28.86642547 80.32670036 29 84 C29.7985173 86.1557388 29.7985173 86.1557388 31.8203125 86.7109375 C35.86423625 87.24722846 38.80356605 85.34157371 42 83 C45.93114663 78.56342023 48.35284488 73.31550971 50.875 68 C54.90466888 59.79412882 59.90553266 52.89685903 68.69921875 49.5859375 C73.79765148 48.28752509 78.12472631 48.21863596 83 50.25 C85.18767059 52.16421177 85.70488433 53.14721517 86 56 C85.01 56.33 84.02 56.66 83 57 C82.34 56.01 81.68 55.02 81 54 C77.91610317 53.33916496 75.8905397 53.53937602 73.07421875 54.99609375 C65.06069399 60.48885927 57.5023559 70.59007512 55.5390625 80.2734375 C55.29222228 82.17477433 55.13660146 84.08757958 55 86 C65.20664259 82.87551758 69.48974837 73.58893545 74.24780273 64.69799805 C75.94820171 61.57140193 76.97373876 60.01750749 80 58 C82.73990408 58.03143293 85.28417854 58.55478337 88 59 C87.52949219 59.7734375 87.05898438 60.546875 86.57421875 61.34375 C81.47616178 69.87217656 77.8901986 77.02977566 77 87 C81.48953141 83.56834668 84.63054352 80.15477619 87.5 75.25 C87.88744385 74.59660645 88.2748877 73.94321289 88.67407227 73.27001953 C91.69871808 67.96320388 93.73010708 62.56638143 95.62329102 56.77832031 C97.66418163 50.65634007 100.19259044 44.83815006 102.9375 39 C103.33251709 38.14003418 103.72753418 37.28006836 104.13452148 36.39404297 C111.59371051 20.8048365 111.59371051 20.8048365 119 18 C121.625 18.1875 121.625 18.1875 124 19 C126.27108185 22.40662278 126.12908171 23.87709295 125.51611328 27.8203125 C124.65481777 31.45779892 123.10808802 34.67205634 121.4375 38 C121.10814453 38.67933594 120.77878906 39.35867188 120.43945312 40.05859375 C119.63662717 41.71078629 118.81978216 43.35615484 118 45 C119.98 45 121.96 45 124 45 C124.59167969 43.83082031 125.18335938 42.66164063 125.79296875 41.45703125 C126.59064696 39.90859707 127.38885201 38.36043421 128.1875 36.8125 C128.57486328 36.04357422 128.96222656 35.27464844 129.36132812 34.48242188 C132.35138764 28.72470397 135.52249771 24.65166819 141 21 C143.5625 20.6875 143.5625 20.6875 146 21 C148.54688672 24.82033007 148.207723 26.6573928 147.69140625 31.08203125 C146.41442616 36.47132009 143.69726671 41.19936017 141 46 C142.65 46 144.3 46 146 46 C146 47.32 146 48.64 146 50 C144.80375 49.979375 143.6075 49.95875 142.375 49.9375 C139.4741055 50.28927807 138.34359256 50.61335487 136.37890625 52.82421875 C135.3919463 54.39961011 134.43614671 55.99483426 133.5078125 57.60546875 C131.98842193 60.01838694 130.44548639 61.56779017 128.3125 63.4375 C123.71009191 67.83626172 122.27226586 73.16971433 121.828125 79.41796875 C121.81494615 81.279481 121.89673929 83.14130724 122 85 C124.75382374 85.2032794 124.75382374 85.2032794 128 84 C133.92444436 78.05535967 137.57591259 70.50063315 141.25 63.0625 C142.26889272 61.00815756 143.29462091 58.95718691 144.328125 56.91015625 C144.99183105 55.56642944 144.99183105 55.56642944 145.66894531 54.19555664 C147 52 147 52 150 50 C152.48046875 49.8046875 152.48046875 49.8046875 155.1875 49.875 C156.08855469 49.89304687 156.98960937 49.91109375 157.91796875 49.9296875 C158.60503906 49.95289063 159.29210937 49.97609375 160 50 C159.6596875 50.4640625 159.319375 50.928125 158.96875 51.40625 C153.76171906 58.82903879 149.94660989 66.86678368 146 75 C145.59523438 75.74121094 145.19046875 76.48242188 144.7734375 77.24609375 C143.51554546 80.0985863 143.88218299 82.93675766 144 86 C148.97270037 85.10746404 151.14736247 81.92155688 154 78 C158.99903687 70.44544734 163.35103641 62.64772658 167.45703125 54.58203125 C169 52 169 52 172 50 C174.04296875 49.8046875 174.04296875 49.8046875 176.1875 49.875 C177.445625 49.91625 178.70375 49.9575 180 50 C178.97968459 52.0738504 177.93435717 54.11772666 176.80859375 56.13671875 C170.86907851 67.18658613 167.10502501 79.18125732 163 91 C164.60357043 90.07079309 166.20304582 89.13451701 167.80078125 88.1953125 C168.69192627 87.67469238 169.58307129 87.15407227 170.5012207 86.61767578 C177.98775771 81.7709934 181.77975117 73.60393946 186 66 C186.66 66.33 187.32 66.66 188 67 C186.79604937 75.42765439 181.21618729 83.78669268 175.03515625 89.53125 C170.92513039 92.4974107 165.18845422 96 160 96 C159.75636719 96.69351563 159.51273438 97.38703125 159.26171875 98.1015625 C154.32483697 109.44263458 145.78422884 119.87699117 134.48046875 125.05859375 C127.99273838 127.52086622 122.49918354 127.31326872 116 125 C113.9375 123.375 113.9375 123.375 113 121 C113.0948317 115.12043439 114.12357831 111.59049937 118 107 C124.94222155 100.67486481 134.78401665 97.73188845 143.98046875 96.3359375 C150.51169404 95.69515924 150.51169404 95.69515924 155.46875 92.02734375 C156.25809221 89.66326385 156.63860771 87.46296701 157 85 C157.63871756 82.99089962 158.29985473 80.98852735 159 79 C158.37351562 79.71027344 157.74703125 80.42054688 157.1015625 81.15234375 C155.87566406 82.53099609 155.87566406 82.53099609 154.625 83.9375 C153.40683594 85.31228516 153.40683594 85.31228516 152.1640625 86.71484375 C149.96457593 89.03740628 149.07907876 89.89352544 145.94140625 90.203125 C144.76384766 90.22632813 144.76384766 90.22632813 143.5625 90.25 C142.78003906 90.27578125 141.99757813 90.3015625 141.19140625 90.328125 C139 90 139 90 137.27734375 88.734375 C135.86933959 86.82258954 135.40064171 85.32372194 135 83 C134.49210938 83.49371094 133.98421875 83.98742187 133.4609375 84.49609375 C130.34070816 87.40012743 127.86853906 89.6934568 123.8125 91.125 C119.43185987 90.93030488 117.0271162 89.0271162 114 86 C113.375 83.875 113.375 83.875 113 82 C112.55269531 82.48210937 112.10539063 82.96421875 111.64453125 83.4609375 C105.2159383 90.17737789 105.2159383 90.17737789 101 91 C97.45147168 90.97900279 94.19234857 90.69233143 91.0625 88.875 C89.45736848 86.04241497 89.30218074 83.20311579 89 80 C88.54109375 80.62648438 88.0821875 81.25296875 87.609375 81.8984375 C86.68898438 83.12433594 86.68898438 83.12433594 85.75 84.375 C85.14671875 85.18710937 84.5434375 85.99921875 83.921875 86.8359375 C81.99655061 89.00388407 80.69591687 90.00790259 78 91 C75 91.125 75 91.125 72 90 C70.27264385 87.48314671 69.09986582 84.84024173 68 82 C67.484375 82.7425 66.96875 83.485 66.4375 84.25 C63.42899684 87.64420869 61.13041521 89.11595096 57 91 C53.96405102 90.93100116 52.65144039 90.53080328 50.3125 88.625 C49 87 49 87 47 84 C45.6696875 85.175625 45.6696875 85.175625 44.3125 86.375 C39.41892557 90.41105555 35.41059214 91.5723743 29 91 C25.31226627 89.32375739 23.14216504 87.42746406 21 84 C20.67 83.01 20.34 82.02 20 81 C19.62488281 81.60328125 19.24976563 82.2065625 18.86328125 82.828125 C15.35823697 88.30199768 12.41453535 92.86182155 6 95 C0.06127094 95.81994287 -4.23161603 95.08616065 -9.15234375 91.61328125 C-17.84461062 84.02362751 -21.47581918 73.20783599 -24.75 62.5 C-25.06582031 61.48679687 -25.38164063 60.47359375 -25.70703125 59.4296875 C-26.47746896 56.95494818 -27.24162771 54.47845785 -28 52 C-28.47308594 52.94359375 -28.94617188 53.8871875 -29.43359375 54.859375 C-33.89707632 63.59312073 -38.7108393 71.42619724 -45 79 C-45.61230469 79.75023437 -46.22460938 80.50046875 -46.85546875 81.2734375 C-53.84107149 89.04845803 -64.3565807 94.44489134 -74.796875 95.203125 C-81.93825158 95.31648018 -88.75279822 95.20035627 -94.6640625 90.74609375 C-97.20778381 88.13842414 -98.38993374 85.55310666 -98.75 82 C-98.59692789 79.34164771 -98.21149833 78.25368841 -96.4921875 76.19140625 C-90.41718748 70.89166774 -85.95996306 70.52983735 -78 71 C-75.53644831 71.4851172 -73.37302985 72.15625605 -71 73 C-71 73.66 -71 74.32 -71 75 C-71.89203125 74.95359375 -72.7840625 74.9071875 -73.703125 74.859375 C-74.87359375 74.82328125 -76.0440625 74.7871875 -77.25 74.75 C-78.99023438 74.68039062 -78.99023438 74.68039062 -80.765625 74.609375 C-84.06007011 74.73392884 -84.06007011 74.73392884 -86.390625 76.79296875 C-88.71977708 79.98707294 -88.55956684 82.15297799 -88 86 C-84.98883444 89.01816827 -82.56164302 89.45581379 -78.375 89.5 C-71.90236109 89.32655535 -67.37420471 87.51064511 -62 84 C-61.39800781 83.61199219 -60.79601562 83.22398437 -60.17578125 82.82421875 C-47.28461451 73.11828202 -39.20633113 54.65765093 -31.609375 40.8515625 C-25.77429127 30.2688208 -20.01191347 19.92006297 -12.6953125 10.28125 C-10.90058736 8.33993066 -10.90058736 8.33993066 -11 7 C-32.24928087 6.3443079 -58.54962355 6.5951981 -75.10546875 21.953125 C-79.12613409 26.29710157 -81.95903273 30.10128117 -82.0234375 36.23046875 C-81.78508835 40.07541684 -81.46965061 42.37379918 -79.125 45.5 C-75.17073345 48.29124698 -71.72459092 48.32031125 -67 48 C-61.74281274 46.10741259 -59.16997468 43.43796456 -56 39 C-55.14720662 36.78264561 -55.14720662 36.78264561 -55 35 C-54.01 35 -53.02 35 -52 35 C-52.12395496 40.94983804 -53.95494508 43.9787052 -58.05078125 48.265625 C-62.96994027 52.64259214 -68.12417487 53.57679955 -74.50390625 53.34375 C-79.25104816 52.6899965 -83.18978975 51.11978243 -86.34765625 47.421875 C-89.68259292 42.11466395 -90.46208763 36.72058855 -89.4375 30.5625 C-87.20253744 21.80144675 -80.31394196 15.38159943 -72.89453125 10.66015625 C-56.68700168 1.7283686 -38.22366 1.84205267 -20.25830078 2.09594727 C-17.97688009 2.12607208 -15.69561791 2.14387856 -13.4140625 2.16015625 C-12.36407578 2.18034569 -12.36407578 2.18034569 -11.2928772 2.20094299 C-6.82149693 2.22413458 -4.19495105 0 0 0 Z M-3 8 C-15.6722124 24.67215111 -15.6722124 24.67215111 -23 43 C-7.11886807 42.60147724 3.67681862 39.85702231 15.5 28.625 C17.65674959 24.85068822 18.32329359 21.33686518 18 17 C15.61815065 12.6173972 12.63541273 10.68560463 8 9 C6.09995132 8.7638262 4.19375593 8.57422442 2.28515625 8.421875 C1.29523682 8.3403418 0.30531738 8.25880859 -0.71459961 8.17480469 C-1.46878174 8.11711914 -2.22296387 8.05943359 -3 8 Z M121 24 C115.64736298 30.39332729 112.10613207 37.36267351 108.5625 44.875 C108.00884766 46.01453125 107.45519531 47.1540625 106.88476562 48.328125 C104.81324943 52.60918153 104.81324943 52.60918153 103 57 C103.33 57.66 103.66 58.32 104 59 C111.41820472 50.07109705 119.17672079 39.45919209 122 28 C121.70641164 26.65735531 121.37775083 25.32143604 121 24 Z M143 26 C135.92905445 35.2186657 135.92905445 35.2186657 133 46 C135.42008431 45.89353911 135.42008431 45.89353911 138 45 C141.9388441 39.34039825 143.6151564 32.79890352 144 26 C143.67 26 143.34 26 143 26 Z M115 48 C114.32904297 49.10408203 114.32904297 49.10408203 113.64453125 50.23046875 C110.44504921 55.3946647 107.41947334 59.84837353 103 64 C103 64.66 103 65.32 103 66 C102.37738281 66.22171875 101.75476563 66.4434375 101.11328125 66.671875 C97.55510151 68.90806929 97.41102906 72.32809365 96.46484375 76.23046875 C95.78448665 80.28402494 96.17295587 83.34591175 98 87 C101.84293577 87.07842726 103.95466152 86.95251772 106.84765625 84.31640625 C113.39487858 76.24389695 122 60.786106 122 50 C120.02 50 118.04 50 116 50 C115.67 49.34 115.34 48.68 115 48 Z M130 50 C129.01 52.97 128.02 55.94 127 59 C129.96404505 56.19195732 132.44499019 53.81684226 134 50 C132.68 50 131.36 50 130 50 Z M46 52 C39.73043121 56.91794747 35.30529205 62.31334328 31 69 C32.91406596 70.24434922 32.91406596 70.24434922 34.734375 69.46875 C39.9902466 66.94267218 43.90216188 64.01914539 47 59 C47.95167379 55.73860648 47.95167379 55.73860648 48 53 C47.34 52.67 46.68 52.34 46 52 Z M69 79 C70 81 70 81 70 81 Z M149 99 C145.78662326 99.89956521 142.58046935 100.82268759 139.375 101.75 C138.47136719 102.00265625 137.56773437 102.2553125 136.63671875 102.515625 C128.49301099 104.89334989 122.93698857 107.94715919 118 115 C116.94824448 118.12688428 116.94824448 118.12688428 117 121 C118.91006552 123.32316171 118.91006552 123.32316171 122.1875 123.375 C131.70813188 122.43854441 139.25541495 114.41088132 145.1953125 107.4140625 C146.83995038 105.30333291 148.44531973 103.17758197 150 101 C149.505 100.01 149.505 100.01 149 99 Z " fill="#129B53" transform="translate(711,680)"/>
<path d="M0 0 C0.80824219 0.11085938 1.61648438 0.22171875 2.44921875 0.3359375 C3.37154297 0.47902344 3.37154297 0.47902344 4.3125 0.625 C3.92320312 1.28242187 3.53390625 1.93984375 3.1328125 2.6171875 C-2.30462681 11.86334006 -7.52173656 21.22500422 -12.6875 30.625 C-13.06084473 31.30030762 -13.43418945 31.97561523 -13.81884766 32.67138672 C-23.0181119 48.85110781 -23.0181119 48.85110781 -27.6875 66.625 C-25.00567949 66.625 -23.26663248 66.17639938 -21.30078125 64.3046875 C-17.34251006 59.29449219 -14.45151806 53.67052602 -11.57885742 47.99365234 C-8.61468691 42.19775459 -5.6302578 37.91475967 -0.125 34.375 C0.63941406 33.87484375 1.40382813 33.3746875 2.19140625 32.859375 C7.01700069 30.0511101 11.87929725 30.13107248 17.3125 30.625 C20.375 31.9375 20.375 31.9375 22.3125 33.625 C22.6425 34.615 22.9725 35.605 23.3125 36.625 C22.8175 37.615 22.8175 37.615 22.3125 38.625 C21.3225 38.625 20.3325 38.625 19.3125 38.625 C18.6525 37.635 17.9925 36.645 17.3125 35.625 C13.75364259 35.0975793 11.91460921 35.25977074 8.8203125 37.13671875 C1.30768255 43.996612 -6.47807819 52.41718699 -7.6875 62.9375 C-7.6875 64.154375 -7.6875 65.37125 -7.6875 66.625 C-2.77096683 66.20358287 -0.91618402 64.23609188 2.3125 60.625 C3.94368643 58.21770935 5.38389601 55.71910743 6.8125 53.1875 C9.60094777 48.27569359 12.32393936 43.66365245 16.3125 39.625 C19.32463833 39.13086212 21.27838237 39.90503988 24.3125 40.625 C23.92578125 41.29144531 23.5390625 41.95789063 23.140625 42.64453125 C16.33802152 54.43789262 16.33802152 54.43789262 14.3125 67.625 C21.82981683 64.72992831 25.77697044 54.33109221 29.125 47.42578125 C31.96635684 40.72429159 34.14518905 33.69158558 36.15234375 26.69921875 C36.875 24.25 36.875 24.25 38.3125 20.625 C40.29296875 19.83203125 40.29296875 19.83203125 42.3125 19.625 C44.0625 20.6875 44.0625 20.6875 45.3125 22.625 C45.95289015 26.7417938 45.45990698 28.37625073 43.3125 32 C42.6525 32.86625 41.9925 33.7325 41.3125 34.625 C45.6025 34.625 49.8925 34.625 54.3125 34.625 C54.3125 41.36714949 54.3125 41.36714949 52.4140625 45.0859375 C52.01703125 45.88773438 51.62 46.68953125 51.2109375 47.515625 C50.79070312 48.33546875 50.37046875 49.1553125 49.9375 50 C46.9701663 55.84193823 44.65804365 61.19300561 43.3125 67.625 C47.88405851 66.26843118 49.46412277 64.49291994 51.875 60.4375 C52.76058594 58.96796875 52.76058594 58.96796875 53.6640625 57.46875 C54.20804688 56.5303125 54.75203125 55.591875 55.3125 54.625 C55.75335937 53.8721875 56.19421875 53.119375 56.6484375 52.34375 C57.55218576 50.77981684 58.43529283 49.2039729 59.3125 47.625 C59.9725 47.625 60.6325 47.625 61.3125 47.625 C60.61751774 56.65976932 54.78484203 64.58704334 48.3125 70.625 C45.6022982 72.26263159 44.48985496 72.625 41.25 72.625 C38.3125 71.625 38.3125 71.625 36.375 69.0625 C34.57731799 63.24646998 35.28243879 59.67774728 37.94921875 54.36328125 C39.20741029 52.08424464 40.49544692 49.82136379 41.81640625 47.578125 C43.61378482 44.58204261 43.61378482 44.58204261 43.3125 40.625 C41.0025 39.965 38.6925 39.305 36.3125 38.625 C36.126875 39.44677734 36.126875 39.44677734 35.9375 40.28515625 C32.97509702 51.67189269 27.13419233 64.62117366 17.3125 71.625 C14.125 72.9375 14.125 72.9375 11.3125 72.625 C7.33624387 69.62071759 6.06729555 67.44595225 5.3125 62.625 C4.85359375 63.17929687 4.3946875 63.73359375 3.921875 64.3046875 C3.30828125 65.02914062 2.6946875 65.75359375 2.0625 66.5 C1.45921875 67.21929688 0.8559375 67.93859375 0.234375 68.6796875 C-1.69265868 70.63022159 -3.13401185 71.66680485 -5.6875 72.625 C-9.21990196 72.48082033 -11.00883342 72.32706888 -13.5 69.75 C-14.6875 67.625 -14.6875 67.625 -15.6875 64.625 C-16.1721875 65.1303125 -16.656875 65.635625 -17.15625 66.15625 C-23.31980241 72.13015464 -23.31980241 72.13015464 -28 72.3125 C-31.6875 71.625 -31.6875 71.625 -33.625 69.9375 C-34.74643939 67.49672014 -35.20303529 65.25682182 -35.6875 62.625 C-36.16960937 63.19089844 -36.65171875 63.75679687 -37.1484375 64.33984375 C-37.78007812 65.07332031 -38.41171875 65.80679688 -39.0625 66.5625 C-39.68898438 67.29339844 -40.31546875 68.02429688 -40.9609375 68.77734375 C-43.58204512 71.58228471 -44.59627467 71.61617174 -48.5625 72 C-52.06435439 71.97457819 -52.45881655 71.84781977 -55.125 69.25 C-56.02648023 67.73551322 -56.89929485 66.2014103 -57.6875 64.625 C-58.23019531 65.11871094 -58.77289063 65.61242187 -59.33203125 66.12109375 C-60.04746094 66.76175781 -60.76289063 67.40242187 -61.5 68.0625 C-62.20769531 68.70058594 -62.91539062 69.33867188 -63.64453125 69.99609375 C-67.55304519 73.11244234 -71.88009763 73.14243078 -76.6875 72.625 C-80.85386339 70.86586879 -82.92836879 68.79136339 -84.6875 64.625 C-85.70937605 56.15802699 -82.78669539 48.24181473 -77.9375 41.3125 C-74.12890111 36.60262962 -69.47397768 32.55382589 -63.6875 30.625 C-57.49419145 30.18262082 -57.49419145 30.18262082 -54.75 31.6875 C-52.97654161 34.92145354 -53.15041283 36.98474255 -53.6875 40.625 C-57.31707869 47.87040898 -63.33419351 51.75232319 -70.8203125 54.37109375 C-72.42786395 54.8429459 -74.05621161 55.2432091 -75.6875 55.625 C-76.69301806 60.89422308 -76.69301806 60.89422308 -75.9375 66.0625 C-74.67463894 67.93109329 -74.67463894 67.93109329 -71.6875 68.625 C-64.69675894 66.74287741 -61.48940006 62.6040565 -57.6875 56.625 C-55.88497214 53.44041923 -54.17230277 50.21116589 -52.52758789 46.94238281 C-49.76511183 41.49588986 -46.98710305 37.06304246 -41.6875 33.875 C-41.0275 33.46765625 -40.3675 33.0603125 -39.6875 32.640625 C-35.05898844 30.29020897 -30.78079004 30.46330825 -25.6875 30.625 C-24.6975 30.955 -23.7075 31.285 -22.6875 31.625 C-22.37522461 31.00044922 -22.06294922 30.37589844 -21.74121094 29.73242188 C-14.484375 15.21875 -14.484375 15.21875 -13.03710938 12.33984375 C-12.18811511 10.63202606 -11.3538315 8.91673604 -10.54101562 7.19140625 C-7.93692932 1.70546443 -6.28132868 -0.91033749 0 0 Z M-63.43359375 35.875 C-67.42149014 40.00104522 -71.34499459 44.31776118 -73.6875 49.625 C-73.3575 50.285 -73.0275 50.945 -72.6875 51.625 C-65.8057291 48.72530236 -61.27395353 46.31971326 -57.6875 39.625 C-57.26446494 36.82856756 -57.26446494 36.82856756 -57.6875 34.625 C-61.50332167 34.23693451 -61.50332167 34.23693451 -63.43359375 35.875 Z M-30.9375 35.125 C-39.99928589 40.74102277 -47.60820807 50.2271779 -50.25 60.625 C-50.75571599 62.69424347 -50.75571599 62.69424347 -50.6875 64.625 C-50.0275 65.615 -49.3675 66.605 -48.6875 67.625 C-42.89273556 66.72956179 -40.04731715 62.0693897 -36.6875 57.625 C-33.47402373 52.7536323 -30.58972597 47.68529144 -27.6875 42.625 C-27.10613281 41.71234375 -26.52476562 40.7996875 -25.92578125 39.859375 C-24.44513308 37.61342899 -24.44513308 37.61342899 -24.6875 34.625 C-27.77492496 33.21548309 -27.77492496 33.21548309 -30.9375 35.125 Z " fill="#129B53" transform="translate(528.6875,698.375)"/>
<path d="M0 0 C12.54 0 25.08 0 38 0 C38 15.84 38 31.68 38 48 C25.46 48 12.92 48 0 48 C0 32.16 0 16.32 0 0 Z M11 11 C11 19.58 11 28.16 11 37 C16.28 37 21.56 37 27 37 C27 28.42 27 19.84 27 11 C21.72 11 16.44 11 11 11 Z " fill="#129B53" transform="translate(561,569)"/>
</svg>
